<?xml version="1.0" encoding="iso-8859-1"?>
<!-- Generator: Adobe Illustrator 19.0.0, SVG Export Plug-In . SVG Version: 6.00 Build 0)  -->
<svg version="1.1" id="Layer_1" xmlns="http://www.w3.org/2000/svg" xmlns:xlink="http://www.w3.org/1999/xlink" x="0px" y="0px"
	 viewBox="0 0 392.598 392.598" style="enable-background:new 0 0 392.598 392.598;" xml:space="preserve">
<g>
	<g>
		<path d="M377.083,190.125l-52.299,23.984v-47.774c0-6.012-4.849-10.925-10.925-10.925h-14.739
			c8.727-14.352,13.899-31.224,13.899-49.196c0-52.622-42.796-95.418-95.418-95.418c-44.154,0-81.261,30.125-92.121,70.917
			c-13.188-14.675-32.194-23.984-53.463-23.984C32.323,57.665,0,89.923,0,129.681c0,9.632,2.004,18.877,5.495,27.281
			C2.263,158.836,0,162.263,0,166.4v204.477c0,6.012,4.849,10.925,10.925,10.925h302.998c6.012,0,10.925-4.849,10.925-10.925
			v-47.774l52.299,23.984c3.62,1.875,15.451,0.84,15.451-9.956v-137.05C391.111,187.539,380.509,188.574,377.083,190.125z
			 M217.6,32.517c40.598,0,73.632,32.97,73.632,73.632c0,40.663-32.97,73.632-73.632,73.632c-40.663,0-73.632-32.97-73.632-73.632
			C143.968,65.487,176.937,32.517,217.6,32.517z M71.952,79.45c27.669,0,50.166,22.497,50.166,50.166s-22.497,50.166-50.166,50.166
			c-27.669,0-50.166-22.497-50.166-50.166C21.786,102.012,44.283,79.45,71.952,79.45z M302.998,359.887H21.786V181.204
			c13.382,13.059,31.16,20.428,50.166,20.428c20.881,0,40.275-8.792,53.915-24.436h27.992
			c17.519,15.774,39.952,24.436,63.677,24.436c23.725,0,46.158-8.663,63.677-24.436h21.786V359.887z M370.747,320.065l-45.899-21.01
			v-60.962l45.899-21.01V320.065z"/>
	</g>
</g>
<g>
	<g>
		<path d="M80.743,312.954H62.578c-6.012,0-10.925,4.848-10.925,10.925c0,6.012,4.849,10.925,10.925,10.925h18.101
			c6.012,0,10.925-4.849,10.925-10.925C91.669,317.931,86.756,312.954,80.743,312.954z"/>
	</g>
</g>
<g>
	<g>
		<path d="M151.143,312.954h-18.101c-6.012,0-10.925,4.848-10.925,10.925c0,6.012,4.848,10.925,10.925,10.925h18.101
			c6.012,0,10.925-4.849,10.925-10.925C162.004,317.931,157.156,312.954,151.143,312.954z"/>
	</g>
</g>
<g>
	<g>
		<path d="M221.543,312.954h-18.101c-6.012,0-10.925,4.848-10.925,10.925c0,6.012,4.849,10.925,10.925,10.925h18.101
			c6.012,0,10.925-4.849,10.925-10.925C232.404,317.931,227.556,312.954,221.543,312.954z"/>
	</g>
</g>
<g>
	<g>
		<path d="M217.6,55.596c-27.927,0-50.554,22.626-50.554,50.554c0,27.927,22.626,50.553,50.554,50.553
			c27.798,0,50.554-22.626,50.554-50.553C268.154,78.222,245.527,55.596,217.6,55.596z M217.6,134.788
			c-15.838,0-28.638-12.929-28.638-28.638c0-15.709,12.8-28.703,28.638-28.703c15.838,0,28.638,12.929,28.638,28.638
			C246.238,121.794,233.374,134.788,217.6,134.788z"/>
	</g>
</g>
<g>
</g>
<g>
</g>
<g>
</g>
<g>
</g>
<g>
</g>
<g>
</g>
<g>
</g>
<g>
</g>
<g>
</g>
<g>
</g>
<g>
</g>
<g>
</g>
<g>
</g>
<g>
</g>
<g>
</g>
</svg>
